<?xml version="1.0" encoding="utf-8"?>
<!-- Generator: Adobe Illustrator 26.2.0, SVG Export Plug-In . SVG Version: 6.00 Build 0)  -->
<svg version="1.1" id="Calque_1" xmlns="http://www.w3.org/2000/svg" xmlns:xlink="http://www.w3.org/1999/xlink" x="0px" y="0px"
	 viewBox="0 0 1417.32 1417.32" style="enable-background:new 0 0 1417.32 1417.32;" xml:space="preserve">
<style type="text/css">
	.st0{fill:#003060;}
	.st1{fill:#A0A079;}
	.st2{fill:#A0A079;}
	.st3{fill:#A0A079;}
	.st4{fill:#A0A079;}
</style>
<g>
	<g>
		<polygon class="st0" points="54.96,630.52 85.77,630.52 85.77,620.49 191.11,606.16 191.11,630.52 217.59,630.52 217.59,676.37 
			107.98,676.37 107.98,722.94 206.85,722.94 206.85,768.44 107.98,768.44 108.69,816.79 217.59,816.79 217.59,863.83 54.96,863.83 
					"/>
		<g>
			<path class="st0" d="M248.53,635.44h4.34h51.73h2.31l1.45,2.27l87.86,140.16V640.3v-4.86h4.62h46.24h4.34v4.86v218.49v4.86h-4.34
				h-51.73h-2.31l-1.45-2.27L303.44,720.9v137.89v4.86h-4.91h-45.66h-4.34v-4.86V640.3V635.44z"/>
			<path class="st0" d="M484.36,863.65v-4.86V640.3v-4.86h4.34h46.24H638.4h4.34v4.86v44.35v4.85h-4.34h-98.55v32.69h89.02h4.34
				v4.86v44.67v4.86h-4.34h-89.02v33.02h98.55h4.34v4.85v44.35v4.86h-4.34H534.93h-46.24H484.36z"/>
			<path class="st0" d="M675.68,635.44h4.34h45.95h24.57c31.4,0,54.81,6.75,70.23,20.23c15.41,13.49,23.12,31.45,23.12,53.9
				c0,28.92-11.18,49.64-33.52,62.15l40.75,85.13l3.18,6.8h-6.94h-47.4h-3.18l-1.15-2.91l-35.55-75.1h-9.54h-19.65v73.15v4.86h-4.91
				h-45.95h-4.34v-4.86V640.3V635.44z M750.54,689.5h-19.65v42.08h19.65c15.41,0,26.3-1.56,32.65-4.69
				c6.36-3.13,9.54-8.58,9.54-16.35s-3.18-13.22-9.54-16.35C776.83,691.07,765.95,689.5,750.54,689.5z"/>
			<path class="st0" d="M875.96,749.71c0-34.52,10.74-62.9,32.22-85.13c21.48-22.22,48.5-33.34,81.07-33.34
				c19.07,0,36.46,4.1,52.16,12.3c15.7,8.2,28.47,19.75,38.29,34.63l2.6,3.88l-3.47,2.91l-35.55,31.07l-3.76,2.91l-2.89-3.88
				c-11.37-15.75-27.17-23.63-47.4-23.63c-16.96,0-31.02,5.45-42.2,16.35c-11.18,10.9-16.76,24.87-16.76,41.92
				c0,17.05,5.58,31.02,16.76,41.92c11.17,10.9,25.24,16.35,42.2,16.35c20.03,0,35.55-4.53,46.53-13.59v-15.21h-32.37h-4.62v-4.86
				v-36.25v-4.86h4.62h36.99H1080h4.33v4.53v81.89v1.62l-0.87,1.3c-9.83,14.03-23.22,25.09-40.17,33.18
				c-16.96,8.09-34.97,12.14-54.04,12.14c-32.56,0-59.59-11.11-81.07-33.34C886.7,812.29,875.96,784.02,875.96,749.71z"/>
			<path class="st0" d="M1117.57,635.44h4.33h44.8h4.33v4.86v218.49v4.86h-4.33h-44.8h-4.33v-4.86V640.3V635.44z"/>
			<path class="st0" d="M1203.99,863.65v-4.86V640.3v-4.86h4.33h46.24h103.46h4.34v4.86v44.35v4.85h-4.34h-98.55v32.69h89.02h4.33
				v4.86v44.67v4.86h-4.33h-89.02v33.02h98.55h4.34v4.85v44.35v4.86h-4.34h-103.46h-46.24H1203.99z"/>
		</g>
		<g>
			<path class="st1" d="M308.19,597.62h-15.22l-32.99-54.14c-0.51-0.83-1.34-2.17-2.48-4.04c-0.51-0.83-1.3-2.13-2.36-3.91v62.09
				h-12.61v-84.75h17.32l30.44,49.92c0.25,0.41,2.1,3.46,5.54,9.13v-59.05h12.36V597.62z"/>
			<path class="st1" d="M396.44,598.92c-11.55,0-20.53-4.22-26.97-12.67c-6.43-8.45-9.65-18.88-9.65-31.3
				c0-12.33,3.42-22.65,10.25-30.95s15.86-12.45,27.07-12.45c11.29,0,20.21,4.15,26.77,12.45c6.56,8.3,9.84,18.68,9.84,31.14
				c0,13.08-3.4,23.65-10.22,31.7C416.72,594.9,407.69,598.92,396.44,598.92z M396.56,586.63c5.64,0,10.42-2.28,14.32-6.83
				c3.91-4.55,5.86-12.81,5.86-24.77c0-9.73-1.61-17.35-4.84-22.88c-3.23-5.53-8.24-8.29-15.03-8.29
				c-13.41,0-20.12,10.53-20.12,31.6c0,10.22,1.71,17.97,5.13,23.25C385.3,583.99,390.2,586.63,396.56,586.63z"/>
			<path class="st1" d="M550.92,512.21v54.45c0,7.37-0.85,13.04-2.55,17.01c-1.7,3.97-4.98,7.4-9.84,10.28
				c-4.86,2.88-10.79,4.32-17.8,4.32c-7.09,0-12.92-1.24-17.48-3.73c-4.56-2.48-7.85-5.89-9.84-10.21
				c-1.99-4.33-2.99-9.84-2.99-16.55v-55.57h15.98v54.45c0,7.45,1.6,12.35,4.81,14.68c3.2,2.34,6.93,3.51,11.17,3.51
				c4.88,0,8.79-1.25,11.72-3.76c2.93-2.5,4.39-7.32,4.39-14.43v-54.45H550.92z"/>
			<path class="st1" d="M652.72,596.97H636.8L610,512.21h16.56l19.93,64.95l20.37-64.95h13.06L652.72,596.97z"/>
			<path class="st1" d="M794.69,597.62h-56.48v-84.75h55.91v12.6h-40.24v22.97h32.35v12.29h-32.35v23.72h40.81V597.62z"/>
			<path class="st1" d="M912.56,597.62h-53.49v-84.75h16.49v70.91h37V597.62z"/>
			<path class="st1" d="M1038.32,597.62h-53.49v-84.75h16.49v70.91h37V597.62z"/>
			<path class="st1" d="M1162.81,596.97h-56.48v-84.75h55.91v12.6h-40.24v22.97h32.35v12.29h-32.35v23.72h40.81V596.97z"/>
		</g>
		<g>
			<path class="st0" d="M349.26,929.86c0,18.24-10.55,26.62-30.26,26.62h-7.69v20.11h-14.79V906.6h23.26
				C341.67,906.6,349.26,913.7,349.26,929.86z M333.69,931.04c0-9.07-5.12-11.63-14.1-11.63h-8.28v24.25h9.26
				c3.85,0,7.59-0.49,10.94-1.58C332.8,938.93,333.69,935.18,333.69,931.04z"/>
			<path class="st0" d="M358.24,941.59c0-26.32,9.76-35.98,30.95-35.98c21.19,0,29.18,9.66,29.18,35.98
				c0,26.32-9.76,35.98-30.95,35.98C366.23,977.57,358.24,967.91,358.24,941.59z M400.33,962.49c1.38-4.93,2.46-10.94,2.46-20.9
				c0-18.14-3.05-23.16-14.59-23.16c-3.75,0-7.39,0.49-10.84,1.58c-2.26,4.04-3.55,10.65-3.55,21.59c0,18.14,3.35,23.16,14.39,23.16
				C393.24,964.76,396.88,963.77,400.33,962.49z"/>
			<path class="st0" d="M430.11,949.67V906.6h14.79v43.86c0,11.53,4.93,14.29,13.01,14.29c3.84,0,7.59-0.49,10.84-1.38
				c1.28-3.25,2.27-6.8,2.27-12.91V906.6h14.79v43.08c0,17.45-7.99,27.9-28.59,27.9S430.11,967.12,430.11,949.67z"/>
			<path class="st0" d="M541.01,949.77l12.32,26.81h-15.67l-10.84-23.66c-1.09,0.1-2.17,0.1-3.25,0.1h-8.67v23.56h-14.79V906.6
				h26.61c20.11,0,26.61,9.07,26.61,21.79C553.34,938.83,549,945.93,541.01,949.77z M524.26,940.21c5.03,0,8.48-0.49,11.14-1.28
				c1.48-3.35,2.37-6.01,2.37-9.56c0-8.18-5.03-9.96-13.01-9.96h-9.86v20.8H524.26z"/>
			<path class="st0" d="M634.57,963.77v12.81h-43.96V906.6h14.79v57.17H634.57z"/>
			<path class="st0" d="M688.01,963.28h-27.89l-4.63,13.31H640.2l25.73-69.99h16.26l25.73,69.99h-15.28L688.01,963.28z
				 M683.57,950.66l-9.46-27.11l-9.56,27.11H683.57z"/>
			<path class="st0" d="M758.5,919.41v15.18h27.21v12.81H758.5v29.18h-14.79V906.6h42.98v12.81H758.5z"/>
			<path class="st0" d="M839.63,949.77l12.32,26.81h-15.67l-10.84-23.66c-1.09,0.1-2.17,0.1-3.25,0.1h-8.67v23.56h-14.79V906.6
				h26.61c20.11,0,26.61,9.07,26.61,21.79C851.96,938.83,847.62,945.93,839.63,949.77z M822.88,940.21c5.03,0,8.48-0.49,11.14-1.28
				c1.48-3.35,2.37-6.01,2.37-9.56c0-8.18-5.03-9.96-13.01-9.96h-9.86v20.8H822.88z"/>
			<path class="st0" d="M906.18,963.28h-27.89l-4.63,13.31h-15.28l25.73-69.99h16.26l25.73,69.99h-15.28L906.18,963.28z
				 M901.74,950.66l-9.46-27.11l-9.56,27.11H901.74z"/>
			<path class="st0" d="M992.44,906.89v69.99h-14.79l-27.21-46.53v46.53h-14.19v-69.99h14.88l27.11,46.53v-46.53H992.44z"/>
			<path class="st0" d="M1005.17,942.58c0-26.61,9.07-36.96,29.87-36.96c9.46,0,16.36,3.25,19.91,5.82c0,5.42-3.45,9.46-5.03,10.65
				c-1.88-1.09-7.79-3.65-15.28-3.65c-3.65,0-7.2,0.59-10.45,1.58c-2.27,4.63-3.45,11.53-3.45,21.59c0,16.76,2.66,23.16,14.29,23.16
				c7.39,0,12.81-2.56,14.98-3.75c1.77,1.48,4.73,4.24,4.73,10.74c-3.65,2.07-12.32,5.82-23.36,5.82
				C1011.97,977.57,1005.17,965.74,1005.17,942.58z"/>
			<path class="st0" d="M1109.96,963.77v12.81h-43.86V906.6h42.88v12.81h-28.09v15.18h27.11v12.81h-27.11v16.36H1109.96z"/>
		</g>
	</g>
	<g>
		<path class="st2" d="M729.55,140.53c6.62,3.19,14,2.82,20.99,4.31c25.6,5.46,46.81,19.98,68.86,32.71
			c107.45,62.02,214.73,124.35,322.32,186.15c25.87,14.86,50.17,30.97,66,57.24c12.56,20.85,19.88,43.23,20.77,67.67
			c0.17,4.66-1.23,6.86-6.13,6.34c-3.44-0.36-7.17,1.06-7.51-4.98c-2.79-49.43-27.5-84.28-69.99-108.65
			c-115.42-66.19-230.39-133.14-345.57-199.74c-18.7-10.81-37.26-21.69-59.37-24.78c-29.1-4.06-56.55,0.11-82,14.79
			c-123.26,71.14-246.54,142.24-369.53,213.84c-38.81,22.59-60.59,56.78-62.95,102.23c-0.37,7.14-3.73,7.46-9.07,7.31
			c-6.98-0.19-5.54-4.97-5.18-9c4.86-53.63,32.44-91.28,78.82-117.77c115.78-66.11,230.96-133.28,346.29-200.18
			c22.26-12.91,44.92-24.3,71.19-26.04c0.65-0.04,1.24-0.95,1.86-1.45c1.12,0,2.25,0,3.37,0c4.49,1.42,8.99,1.42,13.48,0
			C727.3,140.53,728.42,140.53,729.55,140.53z"/>
		<path class="st3" d="M727.95,1275.39c-0.03,0.47-0.06,0.94-0.09,1.41c-5.62,0-11.24,0-16.85,0c0-0.49-0.03-0.98-0.07-1.47
			C716.62,1271.34,722.3,1271.26,727.95,1275.39z"/>
		<path class="st4" d="M726.18,140.53c-4.49,2.52-8.99,2.63-13.48,0C717.19,140.53,721.68,140.53,726.18,140.53z"/>
		<path class="st2" d="M727.95,1275.39c-5.67-0.02-11.34-0.05-17.01-0.07c-29.95-1.31-55.2-14.99-80.39-29.64
			c-105.07-61.11-210.46-121.69-315.55-182.77c-22.48-13.07-46.18-24.24-64.72-43.58c-24.27-25.31-36.49-55.44-39.36-89.91
			c-0.34-4.12,0.35-7.44,5.68-7.01c3.67,0.3,8.33-1.36,8.6,4.99c2.36,54.89,33.6,88.51,79.36,114.22
			c93.97,52.79,186.75,107.71,280.18,161.47c28.69,16.51,56.23,35.3,86.55,48.65c38.55,16.98,76.73,13.28,113.03-7.67
			c123.03-71.01,246.1-141.93,368.79-213.52c38.3-22.34,58.6-57.04,61.63-101.4c0.4-5.84,2.37-6.79,7.49-6.9
			c5.7-0.12,6.52,2.57,6.21,7.21c-3.3,49.33-25.61,87.81-68.08,112.65c-115.82,67.76-232.19,134.56-348.34,201.75
			c-19.67,11.38-38.87,23.73-61.63,28.38C742.96,1273.76,735.53,1275.07,727.95,1275.39z"/>
	</g>
</g>
</svg>
